<svg width="580" height="57" viewBox="0 0 580 57" fill="none" xmlns="http://www.w3.org/2000/svg">
<path d="M0.107955 44V1.81818H14.3608C17.67 1.81818 20.375 2.41548 22.4759 3.61008C24.5904 4.79096 26.1558 6.39062 27.1719 8.40909C28.188 10.4276 28.696 12.6794 28.696 15.1648C28.696 17.6501 28.188 19.9089 27.1719 21.9411C26.1695 23.9732 24.6179 25.5935 22.517 26.8018C20.4162 27.9964 17.7249 28.5938 14.4432 28.5938H4.22727V24.0625H14.2784C16.544 24.0625 18.3634 23.6712 19.7365 22.8885C21.1096 22.1058 22.1051 21.0485 22.723 19.7166C23.3546 18.371 23.6705 16.8537 23.6705 15.1648C23.6705 13.4759 23.3546 11.9654 22.723 10.6335C22.1051 9.30161 21.1027 8.25805 19.7159 7.50284C18.3291 6.7339 16.4891 6.34943 14.196 6.34943H5.21591V44H0.107955ZM36.2653 44V12.3636H40.9613V17.142H41.2908C41.8675 15.5767 42.9111 14.3066 44.4215 13.3317C45.9319 12.3568 47.6346 11.8693 49.5295 11.8693C49.8865 11.8693 50.3327 11.8762 50.8683 11.8899C51.4038 11.9036 51.8088 11.9242 52.0835 11.9517V16.8949C51.9187 16.8537 51.5411 16.7919 50.9506 16.7095C50.3739 16.6134 49.7629 16.5653 49.1175 16.5653C47.5797 16.5653 46.2066 16.888 44.9982 17.5334C43.8036 18.165 42.8562 19.0438 42.1559 20.1697C41.4693 21.282 41.1261 22.5521 41.1261 23.9801V44H36.2653ZM67.155 44.7415C65.1503 44.7415 63.3309 44.3639 61.6969 43.6087C60.0629 42.8397 58.7653 41.7344 57.8042 40.2926C56.843 38.8371 56.3624 37.0795 56.3624 35.0199C56.3624 33.2074 56.7194 31.7382 57.4334 30.6122C58.1474 29.4725 59.1017 28.58 60.2963 27.9347C61.4909 27.2893 62.8091 26.8087 64.2509 26.4929C65.7064 26.1634 67.1687 25.9025 68.638 25.7102C70.5603 25.4631 72.1188 25.2777 73.3134 25.1541C74.5217 25.0168 75.4005 24.7902 75.9498 24.4744C76.5127 24.1586 76.7942 23.6094 76.7942 22.8267V22.6619C76.7942 20.6297 76.2381 19.0507 75.1259 17.9247C74.0274 16.7988 72.3591 16.2358 70.1209 16.2358C67.8004 16.2358 65.981 16.7438 64.6628 17.7599C63.3446 18.776 62.4178 19.8608 61.8823 21.0142L57.2686 19.3665C58.0925 17.4441 59.191 15.9474 60.5641 14.8764C61.9509 13.7917 63.4614 13.0365 65.0953 12.6108C66.7431 12.1714 68.3633 11.9517 69.9561 11.9517C70.9722 11.9517 72.1394 12.0753 73.4576 12.3224C74.7895 12.5559 76.0733 13.0433 77.3091 13.7848C78.5587 14.5263 79.5953 15.6454 80.4192 17.142C81.2431 18.6387 81.655 20.6435 81.655 23.1562V44H76.7942V39.7159H76.5471C76.2175 40.4025 75.6683 41.1371 74.8993 41.9197C74.1304 42.7024 73.1074 43.3684 71.8304 43.9176C70.5534 44.4669 68.995 44.7415 67.155 44.7415ZM67.8965 40.375C69.8188 40.375 71.4391 39.9974 72.7573 39.2422C74.0892 38.487 75.0916 37.5121 75.7644 36.3175C76.4509 35.1229 76.7942 33.8665 76.7942 32.5483V28.0994C76.5882 28.3466 76.1351 28.5732 75.4348 28.7791C74.7483 28.9714 73.9519 29.143 73.0456 29.294C72.1531 29.4313 71.2812 29.5549 70.4299 29.6648C69.5923 29.7609 68.9126 29.8433 68.3908 29.9119C67.1275 30.0767 65.9467 30.3445 64.8482 30.7152C63.7634 31.0722 62.8846 31.6146 62.2118 32.3423C61.5527 33.0563 61.2232 34.0312 61.2232 35.267C61.2232 36.956 61.848 38.233 63.0975 39.098C64.3607 39.9493 65.9604 40.375 67.8965 40.375ZM103.379 44.6591C100.413 44.6591 97.8594 43.9588 95.7173 42.5582C93.5753 41.1577 91.9276 39.2285 90.7741 36.7706C89.6207 34.3127 89.044 31.5047 89.044 28.3466C89.044 25.1335 89.6345 22.2981 90.8153 19.8402C92.0099 17.3686 93.6714 15.4394 95.7997 14.0526C97.9418 12.652 100.441 11.9517 103.297 11.9517C105.521 11.9517 107.526 12.3636 109.311 13.1875C111.096 14.0114 112.558 15.1648 113.698 16.6477C114.838 18.1307 115.545 19.8608 115.82 21.8381H110.959C110.588 20.3963 109.764 19.1193 108.487 18.0071C107.224 16.8812 105.521 16.3182 103.379 16.3182C101.484 16.3182 99.8229 16.8125 98.3949 17.8011C96.9806 18.776 95.8752 20.156 95.0788 21.9411C94.2962 23.7124 93.9048 25.7926 93.9048 28.1818C93.9048 30.6259 94.2893 32.7543 95.0582 34.5668C95.8409 36.3793 96.9394 37.7867 98.3537 38.7891C99.7817 39.7914 101.457 40.2926 103.379 40.2926C104.643 40.2926 105.789 40.0729 106.819 39.6335C107.849 39.1941 108.721 38.5625 109.435 37.7386C110.149 36.9148 110.657 35.9261 110.959 34.7727H115.82C115.545 36.6402 114.865 38.3222 113.781 39.8189C112.71 41.3018 111.288 42.4827 109.517 43.3615C107.759 44.2266 105.714 44.6591 103.379 44.6591ZM136.684 12.3636V16.483H120.289V12.3636H136.684ZM125.067 4.78409H129.928V34.9375C129.928 36.3106 130.127 37.3404 130.526 38.027C130.938 38.6998 131.459 39.1529 132.091 39.3864C132.736 39.6061 133.416 39.7159 134.13 39.7159C134.665 39.7159 135.105 39.6884 135.448 39.6335C135.791 39.5649 136.066 39.5099 136.272 39.4688L137.261 43.8352C136.931 43.9588 136.471 44.0824 135.881 44.206C135.29 44.3433 134.542 44.4119 133.636 44.4119C132.263 44.4119 130.917 44.1167 129.599 43.5263C128.294 42.9358 127.21 42.0365 126.344 40.8281C125.493 39.6198 125.067 38.0956 125.067 36.2557V4.78409ZM143.996 44V12.3636H148.857V44H143.996ZM146.467 7.09091C145.52 7.09091 144.703 6.76823 144.016 6.12287C143.344 5.47751 143.007 4.7017 143.007 3.79545C143.007 2.8892 143.344 2.1134 144.016 1.46804C144.703 0.822679 145.52 0.5 146.467 0.5C147.415 0.5 148.225 0.822679 148.898 1.46804C149.584 2.1134 149.928 2.8892 149.928 3.79545C149.928 4.7017 149.584 5.47751 148.898 6.12287C148.225 6.76823 147.415 7.09091 146.467 7.09091ZM170.612 44.6591C167.646 44.6591 165.092 43.9588 162.95 42.5582C160.808 41.1577 159.16 39.2285 158.007 36.7706C156.853 34.3127 156.276 31.5047 156.276 28.3466C156.276 25.1335 156.867 22.2981 158.048 19.8402C159.242 17.3686 160.904 15.4394 163.032 14.0526C165.174 12.652 167.673 11.9517 170.529 11.9517C172.754 11.9517 174.758 12.3636 176.544 13.1875C178.329 14.0114 179.791 15.1648 180.931 16.6477C182.07 18.1307 182.777 19.8608 183.052 21.8381H178.191C177.82 20.3963 176.997 19.1193 175.72 18.0071C174.456 16.8812 172.754 16.3182 170.612 16.3182C168.717 16.3182 167.055 16.8125 165.627 17.8011C164.213 18.776 163.108 20.156 162.311 21.9411C161.529 23.7124 161.137 25.7926 161.137 28.1818C161.137 30.6259 161.522 32.7543 162.291 34.5668C163.073 36.3793 164.172 37.7867 165.586 38.7891C167.014 39.7914 168.689 40.2926 170.612 40.2926C171.875 40.2926 173.021 40.0729 174.051 39.6335C175.081 39.1941 175.953 38.5625 176.667 37.7386C177.381 36.9148 177.889 35.9261 178.191 34.7727H183.052C182.777 36.6402 182.098 38.3222 181.013 39.8189C179.942 41.3018 178.521 42.4827 176.749 43.3615C174.992 44.2266 172.946 44.6591 170.612 44.6591ZM203.422 44.6591C200.374 44.6591 197.744 43.9863 195.534 42.6406C193.337 41.2812 191.641 39.3864 190.446 36.956C189.265 34.5118 188.675 31.6695 188.675 28.429C188.675 25.1884 189.265 22.3324 190.446 19.8608C191.641 17.3755 193.302 15.4394 195.431 14.0526C197.573 12.652 200.072 11.9517 202.928 11.9517C204.575 11.9517 206.203 12.2263 207.809 12.7756C209.416 13.3248 210.878 14.2173 212.196 15.4531C213.514 16.6752 214.565 18.2955 215.347 20.3139C216.13 22.3324 216.521 24.8177 216.521 27.7699V29.8295H192.135V25.6278H211.578C211.578 23.8428 211.221 22.25 210.507 20.8494C209.807 19.4489 208.805 18.3435 207.5 17.5334C206.209 16.7232 204.685 16.3182 202.928 16.3182C200.992 16.3182 199.316 16.7988 197.902 17.7599C196.502 18.7074 195.424 19.9432 194.669 21.4673C193.913 22.9915 193.536 24.6255 193.536 26.3693V29.1705C193.536 31.5597 193.948 33.585 194.771 35.2464C195.609 36.8942 196.769 38.1506 198.252 39.0156C199.735 39.867 201.459 40.2926 203.422 40.2926C204.699 40.2926 205.852 40.1141 206.882 39.7571C207.926 39.3864 208.825 38.8371 209.58 38.1094C210.336 37.3679 210.919 36.4479 211.331 35.3494L216.027 36.6676C215.533 38.2604 214.702 39.661 213.535 40.8693C212.368 42.0639 210.926 42.9976 209.21 43.6705C207.493 44.3295 205.564 44.6591 203.422 44.6591ZM240.887 44V1.81818H245.995V20.6023H268.487V1.81818H273.595V44H268.487V25.1335H245.995V44H240.887ZM292.471 44.7415C290.467 44.7415 288.647 44.3639 287.013 43.6087C285.379 42.8397 284.082 41.7344 283.121 40.2926C282.159 38.8371 281.679 37.0795 281.679 35.0199C281.679 33.2074 282.036 31.7382 282.75 30.6122C283.464 29.4725 284.418 28.58 285.613 27.9347C286.807 27.2893 288.126 26.8087 289.567 26.4929C291.023 26.1634 292.485 25.9025 293.954 25.7102C295.877 25.4631 297.435 25.2777 298.63 25.1541C299.838 25.0168 300.717 24.7902 301.266 24.4744C301.829 24.1586 302.111 23.6094 302.111 22.8267V22.6619C302.111 20.6297 301.555 19.0507 300.442 17.9247C299.344 16.7988 297.675 16.2358 295.437 16.2358C293.117 16.2358 291.297 16.7438 289.979 17.7599C288.661 18.776 287.734 19.8608 287.199 21.0142L282.585 19.3665C283.409 17.4441 284.507 15.9474 285.881 14.8764C287.267 13.7917 288.778 13.0365 290.412 12.6108C292.059 12.1714 293.68 11.9517 295.273 11.9517C296.289 11.9517 297.456 12.0753 298.774 12.3224C300.106 12.5559 301.39 13.0433 302.626 13.7848C303.875 14.5263 304.912 15.6454 305.736 17.142C306.559 18.6387 306.971 20.6435 306.971 23.1562V44H302.111V39.7159H301.863C301.534 40.4025 300.985 41.1371 300.216 41.9197C299.447 42.7024 298.424 43.3684 297.147 43.9176C295.87 44.4669 294.311 44.7415 292.471 44.7415ZM293.213 40.375C295.135 40.375 296.756 39.9974 298.074 39.2422C299.406 38.487 300.408 37.5121 301.081 36.3175C301.767 35.1229 302.111 33.8665 302.111 32.5483V28.0994C301.905 28.3466 301.452 28.5732 300.751 28.7791C300.065 28.9714 299.268 29.143 298.362 29.294C297.47 29.4313 296.598 29.5549 295.746 29.6648C294.909 29.7609 294.229 29.8433 293.707 29.9119C292.444 30.0767 291.263 30.3445 290.165 30.7152C289.08 31.0722 288.201 31.6146 287.528 32.3423C286.869 33.0563 286.54 34.0312 286.54 35.267C286.54 36.956 287.164 38.233 288.414 39.098C289.677 39.9493 291.277 40.375 293.213 40.375ZM320.704 24.9688V44H315.843V12.3636H320.539V17.3068H320.951C321.693 15.7003 322.819 14.4096 324.329 13.4347C325.84 12.446 327.789 11.9517 330.179 11.9517C332.321 11.9517 334.195 12.3911 335.801 13.2699C337.408 14.1349 338.658 15.4531 339.55 17.2244C340.443 18.982 340.889 21.2064 340.889 23.8977V44H336.028V24.2273C336.028 21.742 335.383 19.8059 334.092 18.419C332.801 17.0185 331.03 16.3182 328.778 16.3182C327.226 16.3182 325.84 16.6546 324.618 17.3274C323.409 18.0002 322.455 18.982 321.755 20.2727C321.054 21.5634 320.704 23.1288 320.704 24.9688ZM361.717 44.6591C359.081 44.6591 356.753 43.9931 354.735 42.6612C352.716 41.3156 351.137 39.4207 349.998 36.9766C348.858 34.5187 348.288 31.6146 348.288 28.2642C348.288 24.9413 348.858 22.0578 349.998 19.6136C351.137 17.1695 352.723 15.2815 354.756 13.9496C356.788 12.6177 359.136 11.9517 361.8 11.9517C363.859 11.9517 365.486 12.295 366.681 12.9815C367.889 13.6544 368.809 14.4233 369.441 15.2884C370.086 16.1397 370.587 16.84 370.944 17.3892H371.356V1.81818H376.217V44H371.521V39.1392H370.944C370.587 39.7159 370.079 40.4437 369.42 41.3224C368.761 42.1875 367.821 42.9633 366.599 43.6499C365.376 44.3227 363.749 44.6591 361.717 44.6591ZM362.376 40.2926C364.326 40.2926 365.974 39.7846 367.319 38.7685C368.665 37.7386 369.688 36.3175 370.388 34.505C371.089 32.6787 371.439 30.571 371.439 28.1818C371.439 25.8201 371.095 23.7535 370.409 21.9822C369.722 20.1972 368.706 18.8104 367.361 17.8217C366.015 16.8194 364.354 16.3182 362.376 16.3182C360.317 16.3182 358.6 16.8468 357.227 17.9041C355.868 18.9477 354.845 20.3688 354.158 22.1676C353.485 23.9527 353.149 25.9574 353.149 28.1818C353.149 30.4337 353.492 32.4796 354.179 34.3196C354.879 36.1458 355.909 37.6013 357.268 38.6861C358.641 39.7571 360.344 40.2926 362.376 40.2926ZM392.962 44L383.323 12.3636H388.431L395.269 36.5852H395.599L402.354 12.3636H407.545L414.218 36.5028H414.547L421.385 12.3636H426.493L416.854 44H412.076L405.155 19.696H404.661L397.741 44H392.962ZM432.92 44V12.3636H437.616V17.142H437.945C438.522 15.5767 439.565 14.3066 441.076 13.3317C442.586 12.3568 444.289 11.8693 446.184 11.8693C446.541 11.8693 446.987 11.8762 447.523 11.8899C448.058 11.9036 448.463 11.9242 448.738 11.9517V16.8949C448.573 16.8537 448.195 16.7919 447.605 16.7095C447.028 16.6134 446.417 16.5653 445.772 16.5653C444.234 16.5653 442.861 16.888 441.653 17.5334C440.458 18.165 439.51 19.0438 438.81 20.1697C438.124 21.282 437.78 22.5521 437.78 23.9801V44H432.92ZM454.5 44V12.3636H459.36V44H454.5ZM456.971 7.09091C456.024 7.09091 455.207 6.76823 454.52 6.12287C453.847 5.47751 453.511 4.7017 453.511 3.79545C453.511 2.8892 453.847 2.1134 454.52 1.46804C455.207 0.822679 456.024 0.5 456.971 0.5C457.919 0.5 458.729 0.822679 459.402 1.46804C460.088 2.1134 460.431 2.8892 460.431 3.79545C460.431 4.7017 460.088 5.47751 459.402 6.12287C458.729 6.76823 457.919 7.09091 456.971 7.09091ZM482.022 12.3636V16.483H465.627V12.3636H482.022ZM470.405 4.78409H475.266V34.9375C475.266 36.3106 475.465 37.3404 475.863 38.027C476.275 38.6998 476.797 39.1529 477.429 39.3864C478.074 39.6061 478.754 39.7159 479.468 39.7159C480.003 39.7159 480.443 39.6884 480.786 39.6335C481.129 39.5649 481.404 39.5099 481.61 39.4688L482.599 43.8352C482.269 43.9588 481.809 44.0824 481.219 44.206C480.628 44.3433 479.88 44.4119 478.974 44.4119C477.6 44.4119 476.255 44.1167 474.937 43.5263C473.632 42.9358 472.547 42.0365 471.682 40.8281C470.831 39.6198 470.405 38.0956 470.405 36.2557V4.78409ZM489.334 44V12.3636H494.194V44H489.334ZM491.805 7.09091C490.858 7.09091 490.041 6.76823 489.354 6.12287C488.681 5.47751 488.345 4.7017 488.345 3.79545C488.345 2.8892 488.681 2.1134 489.354 1.46804C490.041 0.822679 490.858 0.5 491.805 0.5C492.753 0.5 493.563 0.822679 494.236 1.46804C494.922 2.1134 495.265 2.8892 495.265 3.79545C495.265 4.7017 494.922 5.47751 494.236 6.12287C493.563 6.76823 492.753 7.09091 491.805 7.09091ZM507.958 24.9688V44H503.097V12.3636H507.793V17.3068H508.205C508.947 15.7003 510.073 14.4096 511.583 13.4347C513.094 12.446 515.043 11.9517 517.433 11.9517C519.575 11.9517 521.449 12.3911 523.055 13.2699C524.662 14.1349 525.911 15.4531 526.804 17.2244C527.696 18.982 528.143 21.2064 528.143 23.8977V44H523.282V24.2273C523.282 21.742 522.637 19.8059 521.346 18.419C520.055 17.0185 518.284 16.3182 516.032 16.3182C514.48 16.3182 513.094 16.6546 511.871 17.3274C510.663 18.0002 509.709 18.982 509.009 20.2727C508.308 21.5634 507.958 23.1288 507.958 24.9688ZM549.795 56.5227C547.447 56.5227 545.428 56.2206 543.74 55.6165C542.051 55.026 540.643 54.2434 539.517 53.2685C538.405 52.3073 537.519 51.2775 536.86 50.179L540.732 47.4602C541.172 48.0369 541.728 48.696 542.401 49.4375C543.074 50.1927 543.994 50.8449 545.161 51.3942C546.342 51.9571 547.886 52.2386 549.795 52.2386C552.349 52.2386 554.457 51.6207 556.118 50.3849C557.78 49.1491 558.61 47.2131 558.61 44.5767V38.1506H558.198C557.841 38.7273 557.333 39.4413 556.674 40.2926C556.029 41.1302 555.095 41.8786 553.873 42.5376C552.665 43.183 551.031 43.5057 548.971 43.5057C546.417 43.5057 544.124 42.9015 542.092 41.6932C540.073 40.4848 538.474 38.7273 537.293 36.4205C536.126 34.1136 535.542 31.3125 535.542 28.017C535.542 24.7765 536.112 21.9548 537.252 19.5518C538.391 17.1352 539.977 15.2678 542.009 13.9496C544.042 12.6177 546.39 11.9517 549.053 11.9517C551.113 11.9517 552.747 12.295 553.955 12.9815C555.177 13.6544 556.111 14.4233 556.757 15.2884C557.416 16.1397 557.924 16.84 558.281 17.3892H558.775V12.3636H563.471V44.9062C563.471 47.625 562.853 49.8357 561.617 51.5384C560.395 53.2547 558.748 54.5111 556.674 55.3075C554.615 56.1177 552.321 56.5227 549.795 56.5227ZM549.63 39.1392C551.58 39.1392 553.228 38.6929 554.573 37.8004C555.919 36.9079 556.942 35.6241 557.642 33.9489C558.343 32.2737 558.693 30.2689 558.693 27.9347C558.693 25.6553 558.349 23.6437 557.663 21.8999C556.976 20.156 555.96 18.7898 554.615 17.8011C553.269 16.8125 551.607 16.3182 549.63 16.3182C547.57 16.3182 545.854 16.84 544.481 17.8835C543.122 18.9271 542.099 20.3277 541.412 22.0852C540.739 23.8428 540.403 25.7926 540.403 27.9347C540.403 30.1316 540.746 32.0746 541.433 33.7635C542.133 35.4387 543.163 36.7569 544.522 37.718C545.895 38.6655 547.598 39.1392 549.63 39.1392ZM578.795 1.81818L578.383 32.1364H573.605L573.193 1.81818H578.795ZM575.994 44.3295C574.978 44.3295 574.106 43.9657 573.378 43.2379C572.65 42.5102 572.286 41.6383 572.286 40.6222C572.286 39.6061 572.65 38.7341 573.378 38.0064C574.106 37.2786 574.978 36.9148 575.994 36.9148C577.01 36.9148 577.882 37.2786 578.61 38.0064C579.337 38.7341 579.701 39.6061 579.701 40.6222C579.701 41.295 579.53 41.9129 579.186 42.4759C578.857 43.0388 578.41 43.492 577.847 43.8352C577.298 44.1648 576.68 44.3295 575.994 44.3295Z" fill="#060606"/>
</svg>
